<svg width="74" height="74" viewBox="0 0 74 74" fill="none" xmlns="http://www.w3.org/2000/svg">
<path d="M36.6998 73.6482C56.8666 73.6482 73.215 57.2997 73.215 37.1329C73.215 16.9661 56.8666 0.617676 36.6998 0.617676C16.533 0.617676 0.18457 16.9661 0.18457 37.1329C0.18457 57.2997 16.533 73.6482 36.6998 73.6482Z" fill="#C4DBF7"/>
<path d="M62.5154 57.8532H54.3632C54.533 57.5985 54.618 57.2588 54.7029 56.9191L57.3354 37.8972C57.4203 37.048 57.1655 36.1139 56.656 35.4346C56.0616 34.7552 55.2124 34.4155 54.3632 34.4155H18.5273C17.6781 34.4155 16.8289 34.8401 16.2345 35.4346C15.6401 36.1139 15.3853 36.9631 15.5551 37.8972L18.1876 56.9191C18.2726 57.2588 18.3575 57.5985 18.5273 57.8532H10.3751C9.86556 57.8532 9.52588 58.2778 9.52588 58.7024V62.0992C9.52588 62.5238 9.86556 62.9484 10.3751 62.9484H62.5154C62.94 62.9484 63.3646 62.5238 63.3646 62.0992V58.7024C63.3646 58.1929 62.94 57.8532 62.5154 57.8532ZM36.4453 50.5502C33.8977 50.5502 31.9445 48.9367 31.9445 46.9836C31.9445 45.0304 33.9826 43.417 36.4453 43.417C38.9079 43.417 40.946 45.0304 40.946 46.9836C40.946 48.9367 38.9079 50.5502 36.4453 50.5502Z" fill="#1F64FF"/>
<path d="M44.2579 27.5373C44.0031 27.4524 43.6634 27.5373 43.4087 27.7072C41.5405 29.4905 38.9929 30.4246 36.4453 30.4246C33.8977 30.4246 31.3502 29.4905 29.4819 27.7072C29.2272 27.5373 28.8875 27.4524 28.6327 27.5373C25.4907 28.6413 22.5186 30.4246 20.0559 32.7174H52.8347C50.372 30.4246 47.4848 28.6413 44.2579 27.5373Z" fill="#1F64FF"/>
<path d="M36.4453 27.2822C41.9326 27.2822 46.3809 22.8339 46.3809 17.3467C46.3809 11.8594 41.9326 7.41113 36.4453 7.41113C30.9581 7.41113 26.5098 11.8594 26.5098 17.3467C26.5098 22.8339 30.9581 27.2822 36.4453 27.2822Z" fill="#1F64FF"/>
</svg>
